# Blender v3.2.1 OBJ File: 'apple.blend'
# www.blender.org
mtllib apple.mtl
o Circle_Circle.001
v 0.000000 -1.038733 -1.000000
v -0.707107 -1.038733 -0.707107
v -1.000000 -1.038733 0.000000
v -0.707107 -1.038733 0.707107
v 0.000000 -1.038733 1.000000
v 0.707107 -1.038733 0.707107
v 1.000000 -1.038733 -0.000000
v 0.707107 -1.038733 -0.707107
v 0.000000 -0.167908 -1.947253
v -1.376916 -0.167908 -1.376916
v -1.947253 -0.167908 0.000000
v -1.376916 -0.167908 1.376916
v 0.000000 -0.167908 1.947253
v 1.376916 -0.167908 1.376916
v 1.947253 -0.167908 -0.000000
v 1.376916 -0.167908 -1.376915
v 0.000000 1.716046 -1.894234
v -1.339425 1.716046 -1.339425
v -1.894234 1.716046 0.000000
v -1.339425 1.716046 1.339425
v 0.000000 1.716046 1.894234
v 1.339425 1.716046 1.339425
v 1.894234 1.716046 -0.000000
v 1.339426 1.716046 -1.339425
v -0.000000 2.459741 -1.046315
v -0.739856 2.459741 -0.739856
v -1.046315 2.459741 0.000000
v -0.739856 2.459741 0.739856
v 0.000000 2.459741 1.046315
v 0.739856 2.459741 0.739856
v 1.046315 2.459741 -0.000000
v 0.739856 2.459741 -0.739856
v -0.000000 2.459741 -0.591281
v -0.418099 2.459741 -0.418099
v -0.591281 2.459741 0.000000
v -0.418099 2.459741 0.418099
v 0.000000 2.459741 0.591281
v 0.418099 2.459741 0.418099
v 0.591281 2.459741 0.000000
v 0.418099 2.459741 -0.418099
v -0.000000 2.198214 -0.409490
v -0.289553 2.198214 -0.289553
v -0.409490 2.198214 0.000000
v -0.289553 2.198214 0.289553
v 0.000000 2.198214 0.409490
v 0.289553 2.198214 0.289553
v 0.409490 2.198214 0.000000
v 0.289553 2.198214 -0.289553
v -0.000000 2.198214 0.000000
v -0.000000 -1.103826 0.000000
v 0.000000 0.754443 2.241343
v 1.584869 0.754443 1.584869
v -2.241343 0.754443 0.000000
v -1.584869 0.754443 1.584869
v 0.000000 0.754443 -2.241343
v -1.584869 0.754443 -1.584869
v 1.584869 0.754443 -1.584869
v 2.241343 0.754443 -0.000000
v 0.231562 3.652268 0.165128
v 0.400936 3.548620 0.045494
v 0.400936 2.847242 0.872992
v 0.283636 2.919023 0.955845
v 0.059382 2.430375 0.131284
v -0.057917 2.462190 0.168006
v 0.059382 2.741240 -0.235480
v -0.109991 2.787179 -0.182455
v 1.196265 4.020700 0.882117
v 1.196265 3.741922 1.211024
v 1.078966 3.770453 1.243956
v 1.026892 4.061897 0.929669
vt 0.659225 0.130681
vt 0.759431 0.171727
vt 0.826824 0.035759
vt 0.656871 0.042162
vt 0.139958 0.188717
vt 0.208918 0.251213
vt 0.269979 0.171727
vt 0.169773 0.130681
vt 0.499523 0.234368
vt 0.498176 0.382970
vt 0.624596 0.316862
vt 0.577966 0.226283
vt 0.629411 0.188717
vt 0.698370 0.251213
vt 0.010071 0.234368
vt 0.008724 0.382970
vt 0.135144 0.316862
vt 0.088514 0.226283
vt 0.337372 0.035759
vt 0.167418 0.042162
vt 0.554353 0.483410
vt 0.667311 0.545649
vt 0.730272 0.410823
vt 0.670117 0.367005
vt 0.743127 0.290090
vt 0.790629 0.331390
vt 0.863997 0.266184
vt 0.815910 0.213059
vt 0.064901 0.483410
vt 0.177858 0.545650
vt 0.240819 0.410823
vt 0.180665 0.367005
vt 0.301177 0.331390
vt 0.253675 0.290090
vt 0.326458 0.213059
vt 0.374545 0.266184
vt 0.497918 0.204284
vt 0.441713 0.097200
vt 0.987370 0.204284
vt 0.931165 0.097200
vt 0.362567 0.387817
vt 0.417388 0.346186
vt 0.816241 0.539325
vt 0.818482 0.449270
vt 0.852019 0.387817
vt 0.906840 0.346186
vt 0.326789 0.539325
vt 0.329030 0.449270
vt 0.497918 0.334256
vt 0.987370 0.334256
vt 0.431793 0.387413
vt 0.483455 0.382900
vt 0.863724 0.460749
vt 0.882903 0.416443
vt 0.921245 0.387413
vt 0.972907 0.382900
vt 0.393451 0.416443
vt 0.870204 0.513267
vt 0.380752 0.513267
vt 0.374272 0.460749
vt 0.403314 0.934155
vt 0.414888 0.868891
vt 0.342903 0.857529
vt 0.364387 0.932517
vt 0.407476 0.463911
vt 0.418654 0.435768
vt 0.443509 0.419361
vt 0.477304 0.420332
vt 0.896928 0.463911
vt 0.908106 0.435768
vt 0.932962 0.419361
vt 0.966756 0.420332
vt 0.905433 0.498534
vt 0.415981 0.498534
vt 0.453213 0.463593
vt 0.942665 0.463593
vt 0.060246 0.120716
vt 0.549698 0.120716
vt 0.441208 0.753374
vt 0.317128 0.749008
vt 0.326436 0.859362
vt 0.325563 0.933513
vt 0.602992 0.775391
vt 0.691195 0.856038
vt 0.748424 0.736357
vt 0.627321 0.721556
vt 0.466004 0.935514
vt 0.440472 0.869978
vt 0.466004 0.747485
vt 0.836571 0.880837
vt 0.856991 0.831870
vt 0.550757 0.727488
vt 0.571283 0.694167
vt 0.299494 0.744323
vt 0.410737 0.638882
vt 0.362032 0.631857
vt 0.369733 0.646927
vt 0.397151 0.651706
vn -0.6517 -0.7089 -0.2699
vn 0.6517 -0.7089 -0.2699
vn 0.2699 -0.7089 0.6517
vn -0.6517 -0.7089 0.2699
vn -0.2699 -0.7089 -0.6517
vn 0.2699 -0.7089 -0.6517
vn 0.6517 -0.7089 0.2699
vn -0.2699 -0.7089 0.6517
vn 0.3630 0.3164 0.8764
vn -0.8764 0.3164 0.3630
vn -0.3630 0.3164 -0.8764
vn 0.3630 0.3164 -0.8764
vn 0.8764 0.3164 0.3630
vn -0.3630 0.3164 0.8764
vn -0.8764 0.3164 -0.3630
vn 0.8764 0.3164 -0.3630
vn 0.6361 0.7252 -0.2635
vn 0.2635 0.7252 0.6361
vn -0.6361 0.7252 0.2635
vn -0.2635 0.7252 -0.6361
vn 0.2635 0.7252 -0.6361
vn 0.6361 0.7252 0.2635
vn -0.2635 0.7252 0.6361
vn -0.6361 0.7252 -0.2635
vn 0.0000 1.0000 0.0000
vn 0.9931 -0.0814 -0.0849
vn -0.3220 0.5404 0.7774
vn -0.7774 0.5404 -0.3220
vn 0.3220 0.5404 -0.7774
vn 0.7774 0.5404 0.3220
vn -0.7774 0.5404 0.3220
vn -0.3220 0.5404 -0.7774
vn 0.7774 0.5404 -0.3220
vn 0.0000 -0.9979 -0.0650
vn 0.0650 -0.9979 0.0000
vn -0.0650 -0.9979 0.0000
vn -0.0000 -0.9979 0.0650
vn 0.8862 -0.2826 -0.3671
vn -0.8862 -0.2826 -0.3671
vn -0.3671 -0.2826 0.8862
vn 0.8862 -0.2826 0.3671
vn 0.3671 -0.2826 -0.8862
vn -0.3671 -0.2826 -0.8862
vn -0.8862 -0.2826 0.3671
vn 0.3671 -0.2826 0.8862
vn 0.9193 -0.3003 -0.2545
vn 0.0918 -0.9021 0.4216
vn -0.9283 0.2265 0.2948
vn -0.1902 0.7407 -0.6444
vn -0.2526 0.4291 -0.8672
vn -0.7157 0.4772 0.5099
vn -0.8410 0.1625 0.5161
vn -0.1033 -0.8431 0.5277
vn 0.3446 0.7161 0.6070
vn 0.7497 -0.5048 -0.4279
vn 0.2071 -0.4919 0.8457
vn 0.0871 0.8335 -0.5456
usemtl apple
s off
f 3/1/1 11/2/1 10/3/1 2/4/1
f 8/5/2 16/6/2 15/7/2 7/8/2
f 6/9/3 14/10/3 13/11/3 5/12/3
f 4/13/4 12/14/4 11/2/4 3/1/4
f 2/15/5 10/16/5 9/17/5 1/18/5
f 1/18/6 9/17/6 16/6/6 8/5/6
f 7/8/7 15/7/7 14/19/7 6/20/7
f 5/12/8 13/11/8 12/14/8 4/13/8
f 52/21/9 22/22/9 21/23/9 51/24/9
f 54/25/10 20/26/10 19/27/10 53/28/10
f 56/29/11 18/30/11 17/31/11 55/32/11
f 55/32/12 17/31/12 24/33/12 57/34/12
f 58/35/13 23/36/13 22/37/13 52/38/13
f 51/24/14 21/23/14 20/26/14 54/25/14
f 53/28/15 19/27/15 18/39/15 56/40/15
f 57/34/16 24/33/16 23/36/16 58/35/16
f 24/33/17 32/41/17 31/42/17 23/36/17
f 22/22/18 30/43/18 29/44/18 21/23/18
f 20/26/19 28/45/19 27/46/19 19/27/19
f 18/30/20 26/47/20 25/48/20 17/31/20
f 17/31/21 25/48/21 32/41/21 24/33/21
f 23/36/22 31/42/22 30/49/22 22/37/22
f 21/23/23 29/44/23 28/45/23 20/26/23
f 19/27/24 27/46/24 26/50/24 18/39/24
f 31/42/25 39/51/25 38/52/25 30/49/25
f 29/44/25 37/53/25 36/54/25 28/45/25
f 27/46/25 35/55/25 34/56/25 26/50/25
f 32/41/25 40/57/25 39/51/25 31/42/25
f 30/43/25 38/58/25 37/53/25 29/44/25
f 28/45/25 36/54/25 35/55/25 27/46/25
f 26/47/25 34/59/25 33/60/25 25/48/25
f 25/48/25 33/60/25 40/57/25 32/41/25
f 33/61/26 65/62/26 63/63/26 41/64/26
f 33/60/27 41/65/27 48/66/27 40/57/27
f 39/51/28 47/67/28 46/68/28 38/52/28
f 37/53/29 45/69/29 44/70/29 36/54/29
f 35/55/30 43/71/30 42/72/30 34/56/30
f 40/57/31 48/66/31 47/67/31 39/51/31
f 38/58/32 46/73/32 45/69/32 37/53/32
f 36/54/33 44/70/33 43/71/33 35/55/33
f 41/65/25 42/74/25 49/75/25 48/66/25
f 48/66/25 49/75/25 46/68/25 47/67/25
f 42/72/25 43/71/25 44/70/25 49/76/25
f 49/76/25 44/70/25 45/69/25 46/73/25
f 2/15/34 1/18/34 8/5/34 50/77/34
f 50/77/35 8/5/35 7/8/35 6/20/35
f 3/1/36 2/4/36 50/78/36 4/13/36
f 4/13/37 50/78/37 6/9/37 5/12/37
f 16/6/38 57/34/38 58/35/38 15/7/38
f 11/2/39 53/28/39 56/40/39 10/3/39
f 13/11/40 51/24/40 54/25/40 12/14/40
f 15/7/41 58/35/41 52/38/41 14/19/41
f 9/17/42 55/32/42 57/34/42 16/6/42
f 10/16/43 56/29/43 55/32/43 9/17/43
f 12/14/44 54/25/44 53/28/44 11/2/44
f 14/10/45 52/21/45 51/24/45 13/11/45
f 65/62/46 60/79/46 61/80/46 63/63/46
f 41/64/47 63/63/47 64/81/47 42/82/47
f 64/83/48 62/84/48 59/85/48 66/86/48
f 34/87/49 66/88/49 65/62/49 33/61/49
f 66/88/50 59/89/50 60/79/50 65/62/50
f 62/84/51 69/90/51 70/91/51 59/85/51
f 42/92/52 64/83/52 66/86/52 34/93/52
f 63/63/53 61/80/53 62/94/53 64/81/53
f 70/95/54 69/96/54 68/97/54 67/98/54
f 60/79/55 67/98/55 68/97/55 61/80/55
f 61/80/56 68/97/56 69/96/56 62/94/56
f 59/89/57 70/95/57 67/98/57 60/79/57
