# Blender v3.2.1 OBJ File: 'banana.blend'
# www.blender.org
mtllib banana.mtl
o Cube
v 1.000000 1.000000 -1.000000
v 1.000000 -1.000000 -1.000000
v 1.000000 1.000000 1.000000
v 1.000000 -1.000000 1.000000
v -1.000000 1.000000 -1.000000
v -1.000000 -1.000000 -1.000000
v -1.000000 1.000000 1.000000
v -1.000000 -1.000000 1.000000
v -0.695524 0.424777 3.173810
v -0.695524 1.632904 2.484289
v 0.695524 1.632904 2.484289
v 0.695524 0.424777 3.173810
v -0.270481 2.388068 4.089677
v -0.270481 2.664670 3.673986
v 0.270481 2.664670 3.673986
v 0.270481 2.388068 4.089677
v 0.869551 -0.152359 -2.813430
v -0.869551 -0.152359 -2.813430
v 0.869551 1.458823 -2.158776
v -0.869551 1.458823 -2.158776
v 0.528315 1.879021 -4.174617
v -0.528315 1.879021 -4.174617
v 0.528315 2.472500 -3.300403
v -0.528315 2.472500 -3.300403
v 0.266925 2.294727 -4.124504
v -0.266925 2.294727 -4.124504
v 0.266925 2.594575 -3.682817
v -0.266925 2.594575 -3.682817
v 0.266925 3.032215 -4.625163
v -0.266925 3.032215 -4.625163
v 0.266925 3.332063 -4.183477
v -0.266925 3.332063 -4.183477
v 0.154857 3.279640 -4.631830
v -0.154857 3.279640 -4.631830
v 0.154857 3.413947 -4.413603
v -0.154857 3.413947 -4.413603
v 1.234368 0.000000 -1.000000
v -1.234368 0.000000 1.000000
v 1.234368 0.000000 1.000000
v -1.234368 0.000000 -1.000000
v -0.858532 1.028841 2.829050
v 0.858532 1.028841 2.829050
v -0.333874 2.526369 3.881832
v 0.333874 2.526369 3.881832
v 1.073347 0.653232 -2.486103
v -1.073347 0.653232 -2.486103
v 0.652135 2.175761 -3.737510
v -0.652135 2.175761 -3.737510
v 0.329484 2.444651 -3.903660
v -0.329484 2.444651 -3.903660
v 0.329484 3.182139 -4.404320
v -0.329484 3.182139 -4.404320
v 0.191150 3.346794 -4.522717
v -0.191150 3.346794 -4.522717
v 0.000000 -1.142467 -0.992930
v 0.000000 1.103409 0.912006
v 0.000000 -1.142467 1.038244
v 0.000000 1.103409 -1.011117
v 0.000000 1.711985 2.339241
v 0.000000 0.304518 3.245937
v 0.000000 2.745928 3.613164
v -0.000000 2.339826 4.162178
v 0.000000 -0.281613 -2.834625
v 0.000000 1.544596 -2.125351
v 0.000000 1.781429 -4.217029
v 0.000000 2.519308 -3.223095
v 0.000000 2.203615 -4.166134
v 0.000000 2.636691 -3.590810
v 0.000000 2.952598 -4.674597
v 0.000000 3.345831 -4.072225
v 0.000000 3.253511 -4.674286
v -0.000000 3.451584 -4.352448
v 0.000000 3.346794 -4.522717
v 0.000000 2.665181 3.944433
vt 0.877483 0.535121
vt 0.774716 0.529788
vt 0.787190 0.329477
vt 0.885642 0.340463
vt 0.690531 0.334520
vt 0.599191 0.331366
vt 0.704133 0.136115
vt 0.762413 0.159445
vt 0.677778 0.513328
vt 0.078253 0.514914
vt 0.176719 0.514176
vt 0.199461 0.680027
vt 0.112073 0.716673
vt 0.270820 0.499380
vt 0.370259 0.480110
vt 0.380826 0.680634
vt 0.287892 0.676902
vt 0.211363 0.342542
vt 0.294058 0.349935
vt 0.258533 0.916466
vt 0.302934 0.869266
vt 0.432494 0.976272
vt 0.428207 0.999872
vt 0.824310 0.174021
vt 0.892960 0.185810
vt 0.418936 0.831543
vt 0.359106 0.846183
vt 0.871305 0.011211
vt 0.893958 0.038819
vt 0.869289 0.046017
vt 0.851657 0.037621
vt 0.463469 0.955216
vt 0.446463 0.963468
vt 0.837118 0.024500
vt 0.702947 0.659130
vt 0.786243 0.658395
vt 0.823396 0.802125
vt 0.778862 0.822597
vt 0.487637 0.502894
vt 0.585887 0.500046
vt 0.622537 0.667784
vt 0.544609 0.699569
vt 0.473360 0.474413
vt 0.379433 0.349274
vt 0.472480 0.347432
vt 0.468183 0.196490
vt 0.415392 0.201646
vt 0.425952 0.147398
vt 0.460930 0.154245
vt 0.736833 0.843248
vt 0.700533 0.880461
vt 0.325942 0.160871
vt 0.369326 0.181341
vt 0.801326 0.866662
vt 0.833860 0.854567
vt 0.864811 0.948047
vt 0.842604 0.955408
vt 0.360065 0.117693
vt 0.391356 0.135637
vt 0.770598 0.885551
vt 0.741305 0.904904
vt 0.801304 0.986783
vt 0.821536 0.967052
vt 0.840556 0.981733
vt 0.835543 0.999688
vt 0.458032 0.054839
vt 0.487382 0.060014
vt 0.415212 0.032630
vt 0.435404 0.045615
vt 0.454813 0.006524
vt 0.476018 0.024035
vt 0.456728 0.030121
vt 0.444777 0.026114
vt 0.435025 0.018756
vt 0.862424 0.971832
vt 0.850556 0.975062
vt 0.430837 0.000128
vt 0.832493 0.000128
vt 0.465660 0.988874
vt 0.859284 0.994774
vt 0.893958 0.943713
vt 0.881045 0.978777
vt 0.868372 0.847908
vt 0.329785 0.097480
vt 0.394887 0.011676
vt 0.288013 0.122728
vt 0.877433 0.659201
vt 0.875226 0.806638
vt 0.130791 0.311606
vt 0.485511 0.819815
vt 0.487382 0.962017
vt 0.478275 0.669635
vt 0.509288 0.296769
vt 0.657672 0.087829
vn -0.1029 0.9947 0.0000
vn -0.9467 -0.1767 0.2692
vn -0.9736 0.2282 0.0000
vn 0.1410 -0.9900 0.0000
vn 0.9736 0.2282 0.0000
vn 0.9633 -0.2017 -0.1769
vn 0.2025 -0.3900 0.8983
vn 0.1628 -0.8200 0.5488
vn -0.1500 0.9150 -0.3745
vn 0.9646 0.2541 0.0706
vn -0.3247 0.8890 0.3230
vn 0.9468 0.3192 0.0409
vn -0.2534 0.7623 -0.5955
vn -0.9147 0.0214 0.4036
vn -0.9582 0.2862 -0.0020
vn -0.9715 0.2371 -0.0074
vn -0.1334 -0.8960 -0.4236
vn 0.0981 0.9272 0.3615
vn 0.1599 0.9552 0.2492
vn -0.1262 -0.5449 -0.8289
vn 0.1226 0.7513 0.6484
vn 0.9404 -0.0459 -0.3369
vn -0.9736 0.1282 0.1888
vn 0.6869 0.4959 -0.5313
vn -0.6936 0.6719 -0.2596
vn -0.0709 0.1411 -0.9874
vn -0.2054 0.0306 -0.9782
vn -0.3054 -0.5348 -0.7878
vn 0.3501 0.5261 0.7750
vn 0.9736 -0.1282 -0.1888
vn 0.0000 0.8516 -0.5241
vn 0.2319 0.9284 0.2904
vn 0.8097 0.3487 -0.4720
vn -0.7924 0.5909 -0.1513
vn -0.8097 0.3487 -0.4720
vn 0.7924 0.5909 -0.1513
vn 0.9736 0.1282 0.1888
vn -0.6869 0.4959 -0.5313
vn 0.6936 0.6719 -0.2596
vn -0.9736 -0.1282 -0.1888
vn 0.9582 0.2862 -0.0020
vn -0.9633 -0.2017 -0.1769
vn -0.9404 -0.0459 -0.3369
vn -0.9468 0.3192 0.0409
vn 0.9147 0.0214 0.4036
vn -0.2580 0.6339 0.7291
vn 0.9467 -0.1767 0.2692
vn 0.9715 0.2371 -0.0074
vn 0.9736 -0.2282 0.0000
vn -0.9736 -0.2282 0.0000
vn -0.9646 0.2541 0.0706
vn 0.2580 0.6339 0.7291
vn -0.2319 0.9284 0.2904
vn -0.3501 0.5261 0.7750
vn 0.3054 -0.5348 -0.7878
vn 0.2054 0.0306 -0.9782
vn 0.0709 0.1411 -0.9874
vn -0.1226 0.7513 0.6484
vn 0.1262 -0.5449 -0.8289
vn -0.1599 0.9552 0.2492
vn -0.0981 0.9272 0.3615
vn 0.1334 -0.8960 -0.4236
vn 0.2534 0.7623 -0.5955
vn 0.3247 0.8890 0.3230
vn 0.1500 0.9150 -0.3745
vn -0.1628 -0.8200 0.5488
vn -0.2025 -0.3900 0.8983
vn -0.1410 -0.9900 0.0000
vn 0.1029 0.9947 0.0000
usemtl Material
s off
f 58/1/1 5/2/1 7/3/1 56/4/1
f 38/5/2 8/6/2 9/7/2 41/8/2
f 38/5/3 7/3/3 5/2/3 40/9/3
f 55/10/4 2/11/4 4/12/4 57/13/4
f 37/14/5 1/15/5 3/16/5 39/17/5
f 37/14/6 2/11/6 17/18/6 45/19/6
f 60/20/7 12/21/7 16/22/7 62/23/7
f 57/13/8 4/12/8 12/21/8 60/20/8
f 56/4/9 7/3/9 10/24/9 59/25/9
f 39/17/10 3/16/10 11/26/10 42/27/10
f 74/28/11 61/29/11 14/30/11 43/31/11
f 42/27/12 11/26/12 15/32/12 44/33/12
f 59/25/13 10/24/13 14/30/13 61/29/13
f 41/8/14 9/7/14 13/34/14 43/31/14
f 46/35/15 20/36/15 24/37/15 48/38/15
f 40/9/16 5/2/16 20/36/16 46/35/16
f 55/39/17 6/40/17 18/41/17 63/42/17
f 58/43/18 1/15/18 19/44/18 64/45/18
f 66/46/19 23/47/19 27/48/19 68/49/19
f 63/42/20 18/41/20 22/50/20 65/51/20
f 64/45/21 19/44/21 23/47/21 66/46/21
f 45/19/22 17/18/22 21/52/22 47/53/22
f 50/54/23 28/55/23 32/56/23 52/57/23
f 47/53/24 21/52/24 25/58/24 49/59/24
f 48/38/25 24/37/25 28/55/25 50/54/25
f 65/51/26 22/50/26 26/60/26 67/61/26
f 69/62/27 30/63/27 34/64/27 71/65/27
f 67/61/28 26/60/28 30/63/28 69/62/28
f 68/49/29 27/48/29 31/66/29 70/67/29
f 49/59/30 25/58/30 29/68/30 51/69/30
f 73/70/31 72/71/31 35/72/31 53/73/31
f 70/67/32 31/66/32 35/72/32 72/71/32
f 51/69/33 29/68/33 33/74/33 53/73/33
f 52/57/34 32/56/34 36/75/34 54/76/34
f 30/63/35 52/57/35 54/76/35 34/64/35
f 31/66/36 51/69/36 53/73/36 35/72/36
f 71/77/31 73/70/31 53/73/31 33/74/31
f 27/48/37 49/59/37 51/69/37 31/66/37
f 22/50/38 48/38/38 50/54/38 26/60/38
f 23/47/39 47/53/39 49/59/39 27/48/39
f 26/60/40 50/54/40 52/57/40 30/63/40
f 19/44/41 45/19/41 47/53/41 23/47/41
f 6/40/42 40/9/42 46/35/42 18/41/42
f 18/41/43 46/35/43 48/38/43 22/50/43
f 10/24/44 41/8/44 43/31/44 14/30/44
f 12/21/45 42/27/45 44/33/45 16/22/45
f 62/78/46 74/28/46 43/31/46 13/34/46
f 4/12/47 39/17/47 42/27/47 12/21/47
f 1/15/48 37/14/48 45/19/48 19/44/48
f 2/11/49 37/14/49 39/17/49 4/12/49
f 8/6/50 38/5/50 40/9/50 6/40/50
f 7/3/51 38/5/51 41/8/51 10/24/51
f 16/22/52 44/33/52 74/79/52 62/23/52
f 34/64/31 54/76/31 73/80/31 71/65/31
f 32/56/53 70/81/53 72/82/53 36/75/53
f 54/76/31 36/75/31 72/82/31 73/80/31
f 28/55/54 68/83/54 70/81/54 32/56/54
f 25/58/55 67/84/55 69/85/55 29/68/55
f 29/68/56 69/85/56 71/77/56 33/74/56
f 21/52/57 65/86/57 67/84/57 25/58/57
f 20/36/58 64/87/58 66/88/58 24/37/58
f 17/18/59 63/89/59 65/86/59 21/52/59
f 24/37/60 66/88/60 68/83/60 28/55/60
f 5/2/61 58/1/61 64/87/61 20/36/61
f 2/11/62 55/10/62 63/89/62 17/18/62
f 11/26/63 59/90/63 61/91/63 15/32/63
f 44/33/64 15/32/64 61/91/64 74/79/64
f 3/16/65 56/92/65 59/90/65 11/26/65
f 8/6/66 57/93/66 60/94/66 9/7/66
f 9/7/67 60/94/67 62/78/67 13/34/67
f 6/40/68 55/39/68 57/93/68 8/6/68
f 1/15/69 58/43/69 56/92/69 3/16/69
